<?xml version="1.0" encoding="utf-8"?>
<!-- Generator: Adobe Illustrator 22.0.0, SVG Export Plug-In . SVG Version: 6.00 Build 0)  -->
<svg version="1.1"
	 id="svg2" inkscape:version="0.48.2 r9819" sodipodi:docname="New document 1" xmlns:cc="http://creativecommons.org/ns#" xmlns:dc="http://purl.org/dc/elements/1.1/" xmlns:inkscape="http://www.inkscape.org/namespaces/inkscape" xmlns:rdf="http://www.w3.org/1999/02/22-rdf-syntax-ns#" xmlns:sodipodi="http://sodipodi.sourceforge.net/DTD/sodipodi-0.dtd" xmlns:svg="http://www.w3.org/2000/svg"
	 xmlns="http://www.w3.org/2000/svg" xmlns:xlink="http://www.w3.org/1999/xlink" x="0px" y="0px" viewBox="0 0 46.4 45.4"
	 style="enable-background:new 0 0 46.4 45.4;" xml:space="preserve">
<style type="text/css">
	.st0{clip-path:url(#SVGID_2_);}
	.st1{fill:#086591;}
	.st2{fill:#FFFFFF;}
</style>
<sodipodi:namedview  bordercolor="#666666" borderopacity="1.0" fit-margin-bottom="0.5" fit-margin-left="0.5" fit-margin-right="0.5" fit-margin-top="0.5" id="base" inkscape:current-layer="g2993" inkscape:cx="247.82949" inkscape:cy="-39.177568" inkscape:document-units="px" inkscape:pageopacity="0.0" inkscape:pageshadow="2" inkscape:window-height="1028" inkscape:window-maximized="1" inkscape:window-width="1920" inkscape:window-x="-8" inkscape:window-y="-8" inkscape:zoom="1.979899" pagecolor="#ffffff" showgrid="false">
	</sodipodi:namedview>
<g id="layer1" transform="translate(-137.89356,-32.599422)" inkscape:groupmode="layer" inkscape:label="Layer 1">
	<g id="g2993" transform="matrix(1.25,0,0,-1.25,-428.21429,879.32551)" inkscape:label="US_Airways_Side_by_Side_Factsheet">
		<g id="g5437">
		</g>
		<g id="g4361">
			<g>
				<defs>
					<polygon id="SVGID_1_" points="-94.6,200.8 -62.3,200.8 -62.3,221.4 -94.6,221.4 -94.6,200.8 					"/>
				</defs>
				<clipPath id="SVGID_2_">
					<use xlink:href="#SVGID_1_"  style="overflow:visible;"/>
				</clipPath>
				<g id="g4363" class="st0">
					<g id="g4369" transform="matrix(0.2266244,0,0,-0.2584647,1912.0443,-850.36291)">
						<g id="g4371" transform="translate(-7973.7549,-4000.1055)">
							<path id="path4373" inkscape:connector-curvature="0" class="st1" d="M-699.4,0v-12.6l1-1.1v-9.5l3.2-1.9v-0.2l1.2,0.5
								l10.1,4.8l0.5,0.2v0.5v3.3l6,2.1l0.5,0.2v0.6V0.1h0.5v0.8h5.5v5.8h-294.9V0.9h6.4v-5.7h-1v-1.6l3.5-3.5l5-5.1l5,5.1l3.4,3.5
								v1.6h-0.9v5.7h2.1v-4.8v-2v-4.2h-1.1v-1.5l3.6-3.6l5.1-5.2l5.1,5.2l3.6,3.6v1.5h-1v4.2v2v4.8h1.7v-37.3h18.9v13.9h18.2V0.9
								h1.9v-39.5h15.8V0.9h2.3v-24.4h12.2v-30h15.8V0.9h3.3V-61l15.8,7.2v23.9h16.8v2.8h13.5h2.1v2.1v9.7h5.5v-20.5l13.9-2.7l4,2
								V-48l18.1-3.5l8.2,4v14h0.2v-4.8l5.7-5.2v-4h1.6v4l5.7,5.2v4.8h1.8V0.9h2.9v-25.7h3.6v-4.5h1.6v-2.9l5-5.3l4.9,5.3v2.9h1.6
								v4.5h3.2V0.9h1.7l0-0.9H-699.4z"/>
						</g>
					</g>
				</g>
			</g>
		</g>
	</g>
</g>
<g id="g5451" transform="matrix(1.3439297,0,0,1.3439297,230.19543,-269.75452)">
	<g id="layer1-8" transform="matrix(0.72462467,0,0,-0.72462467,-193.02879,488.4987)" inkscape:label="Layer 1">
		<g id="g5423" transform="matrix(0.07116922,0,0,0.07116922,677.12796,-316.7662)">
			<path id="path3016" inkscape:connector-curvature="0" sodipodi:nodetypes="ccccccccc" class="st2" d="M-8801,9555.3l75.2-125
				c23.3-37.5,61.7-54.5,109.6-54.5h193.5l-226.6,274.6l-32.1,18.3l-84.8-27.7l-43-62.2L-8801,9555.3z"/>
			<path id="path3018" inkscape:connector-curvature="0" sodipodi:nodetypes="cccccc" class="st2" d="M-8649.3,9650.4l-47.3,57.3
				l-125-67.2l13.3-67.9l7.3-17.3C-8803.9,9601.3-8724.9,9654.7-8649.3,9650.4z"/>
			<path id="path3014" inkscape:connector-curvature="0" sodipodi:nodetypes="ccccccccc" class="st2" d="M-8801,9555.3l-67.6,111.8
				c-8.1,12.7-10.4,23.8-10.4,36.7c0,14.2,6.1,22,29.4,34.4c27.1,13,81.8,18.6,138.1,18.6c91.5,0,113.4-29.4,122.8-61
				c0,0-12.9,5.1-43.3,5.1c-96.4,0-173.4-46.8-173.4-117.6C-8805.6,9568.5-8801,9555.3-8801,9555.3z"/>
			<path id="path3012" inkscape:connector-curvature="0" sodipodi:nodetypes="ccccccc" class="st2" d="M-9091.5,10031.1h91
				c38.4,0,54.1-15.7,69.6-31.1c17.8-16.1,71.6-89.1,185.5-231.4h-123.3c-50.4,0-66.4,8.6-85.8,38.3L-9091.5,10031.1z"/>
		</g>
	</g>
</g>
</svg>
