<?xml version="1.0" encoding="utf-8"?>
<!-- Generator: Adobe Illustrator 22.0.0, SVG Export Plug-In . SVG Version: 6.00 Build 0)  -->
<svg version="1.1" id="Layer_1" xmlns="http://www.w3.org/2000/svg" xmlns:xlink="http://www.w3.org/1999/xlink" x="0px" y="0px"
	 viewBox="0 0 49.7 60" style="enable-background:new 0 0 49.7 60;" xml:space="preserve">
<style type="text/css">
	.st0{fill:#FFFFFF;}
</style>
<path class="st0" d="M18.4,28.9c-0.2,0-0.4-0.3-0.5-0.4c0,0-0.1-0.3-0.1-0.3c0,0,0.3,0,0.3,0.1C18.2,28.4,18.3,28.5,18.4,28.9
	C18.4,28.8,18.4,28.9,18.4,28.9 M13.6,26.2c-0.1,0-0.5-0.3-0.6-0.5c-0.2-0.3-0.3-0.5-0.5-0.8c-0.2-0.2-0.3-0.4-0.4-0.8
	c0,0,0-0.2,0-0.2c0.2,0,0.4,0.3,0.4,0.5c0.1,0.1,0.1,0.2,0.2,0.3c0.1,0.1,0.1,0.3,0.2,0.4c0.1,0.2,0.3,0.3,0.4,0.5
	c0.1,0.1,0.2,0.2,0.2,0.3C13.6,26,13.7,26.2,13.6,26.2 M12.3,26.2c-0.1,0-0.1-0.1-0.2-0.1c-0.2-0.1-0.3-0.3-0.3-0.6c0,0,0,0,0,0
	c0.2,0,0.4,0.3,0.5,0.4C12.3,25.9,12.3,26,12.3,26.2C12.3,26.2,12.3,26.2,12.3,26.2 M7.8,27.1C7.8,27.1,7.8,27.1,7.8,27.1
	c-0.3,0-0.3-0.3-0.4-0.4c-0.1-0.1-0.1-0.3-0.2-0.4C7.1,26.2,7,26.1,7,26c-0.1-0.1-0.1-0.3-0.2-0.4c0-0.1-0.1-0.1-0.1-0.2
	c-0.1-0.2-0.2-0.3-0.3-0.5c0-0.1,0-0.1-0.1-0.2c0-0.1-0.1-0.3-0.1-0.4c0-0.1,0-0.2,0-0.2c0,0,0,0,0,0c0.2,0,0.3,0.4,0.4,0.6
	c0.1,0.2,0.2,0.3,0.3,0.4C7,25.3,7,25.5,7.1,25.6c0.1,0.1,0.2,0.2,0.2,0.3c0.1,0.1,0.1,0.3,0.2,0.5c0.1,0.2,0.2,0.3,0.3,0.5
	C7.8,26.9,7.8,27,7.8,27.1 M6.9,21c0-0.1-0.1-0.2-0.1-0.2c0-0.1,0-0.2-0.1-0.3c-0.1-0.3-0.3-0.6-0.4-0.9c-0.1-0.1-0.1-0.3-0.1-0.5
	c0,0,0.1,0,0.1,0c0,0,0.1,0.1,0.1,0.1c0,0,0,0.1,0.1,0.1c0.1,0.1,0.1,0.2,0.2,0.3c0.1,0.2,0.1,0.5,0.2,0.7c0.1,0.1,0.2,0.3,0.3,0.4
	c0,0.1,0.1,0.2,0.1,0.3c0,0.1,0,0.2,0,0.2c0,0.1,0,0.1,0,0.1C7.1,21.3,7,21.1,6.9,21 M49.7,39.9c-0.2-0.9-2.9-0.5-5.1-0.7
	c-2-0.2-4.6-0.5-7.7-1.6c-2.9-1-5.7-2.2-8.2-3.5c0,0-1-0.5-1.1-0.6c-0.2-0.1-0.4-0.2-0.6-0.3c-0.1-0.1-0.3-0.2-0.4-0.2
	c-0.2-0.1-0.3-0.2-0.4-0.3c-0.2-0.1-0.4-0.2-0.5-0.3c-0.2-0.1-0.4-0.2-0.6-0.4c-0.1-0.1-0.2-0.1-0.4-0.2c-0.1-0.1-0.3-0.2-0.4-0.2
	c-0.2-0.1-0.3-0.2-0.5-0.4c-0.1-0.1-0.2-0.1-0.4-0.2c-0.1-0.1-0.3-0.2-0.4-0.3c-0.1-0.1-0.2-0.1-0.2-0.2c-0.1-0.1-0.3-0.3-0.4-0.4
	c-0.1-0.1-0.3-0.2-0.4-0.3c-0.1-0.1-0.2-0.2-0.3-0.2c-0.2-0.2-0.4-0.3-0.6-0.4c-0.1-0.1-0.3-0.2-0.4-0.3c-0.2-0.1-0.3-0.3-0.5-0.4
	c-0.1-0.1-0.2-0.2-0.3-0.2c-0.1-0.1-0.2-0.2-0.3-0.3c-0.1-0.1-0.2-0.2-0.3-0.3c-0.1-0.2-0.3-0.4-0.5-0.5c-0.1-0.1-0.1-0.1-0.2-0.2
	c0,0-0.1-0.1-0.2-0.2c-0.1-0.1-0.1-0.1-0.2-0.2c0,0-0.1-0.1-0.2-0.2c0,0-0.1-0.1-0.2-0.2c-0.1-0.1-0.1-0.1-0.1-0.2
	c-0.1-0.1-0.2-0.2-0.3-0.3c-0.1-0.1-0.1-0.1-0.2-0.2c0,0-0.1-0.1-0.1-0.2c0-0.1-0.1-0.1-0.1-0.1C17.1,25,17,25,17,25
	c0,0-0.1,0.1,0,0.2c0.1,0.1,0.1,0.2,0.2,0.3c0,0,0,0,0,0c0,0,0,0.1,0.1,0.1c0,0.1,0.1,0.1,0.1,0.2c0.1,0.1,0.2,0.2,0.3,0.3
	c0,0,0.1,0.1,0.1,0.1c0.1,0.1,0.1,0.1,0.1,0.2c0,0.1,0.1,0.1,0.2,0.2c0,0,0.1,0.1,0.1,0.1c0,0,0.1,0.1,0.1,0.1
	c0.1,0,0.1,0.1,0.1,0.1c0.1,0.1,0.2,0.2,0.2,0.2c0.1,0.1,0.1,0.1,0.2,0.2c0.2,0.2,0.3,0.4,0.5,0.6c0.1,0.1,0.2,0.2,0.3,0.3
	c0.1,0.1,0.2,0.2,0.3,0.3c0.1,0.1,0.2,0.2,0.3,0.3c0.2,0.2,0.3,0.3,0.5,0.5c0.1,0.1,0.2,0.2,0.3,0.3c0.1,0.1,0.2,0.3,0.3,0.3
	c0.2,0.2,0.3,0.4,0.2,0.4c-0.1,0-0.4-0.2-0.6-0.3c-0.1-0.1-0.2-0.1-0.3-0.2c0,0-0.2-0.2-0.3-0.3c-0.1-0.1-0.2-0.2-0.3-0.3
	c-0.2-0.3-0.3-0.3-0.6-0.6c-0.2-0.2-0.5-0.4-0.7-0.6c-0.1-0.1-0.1-0.1-0.2-0.2c-0.1-0.1-0.1-0.1-0.2-0.2c-0.1-0.1-0.2-0.3-0.3-0.4
	c-0.1-0.1-0.2-0.2-0.3-0.3c0,0-0.1-0.1-0.1-0.1c-0.1,0-0.1-0.1-0.2-0.1c-0.1-0.2-0.3-0.4-0.4-0.5c-0.1-0.1-0.2-0.2-0.2-0.2
	c-0.1-0.2-0.2-0.4-0.4-0.6c-0.2-0.2-0.5-0.4-0.6-0.7c-0.2-0.3-0.3-0.6-0.5-0.8c-0.1-0.1-0.2-0.2-0.3-0.3c0-0.1-0.1-0.1-0.1-0.2
	c-0.1-0.1-0.2-0.3-0.3-0.4c-0.1-0.2-0.2-0.4-0.3-0.6c0,0-0.1-0.2-0.1-0.3c-0.1-0.1-0.1-0.2-0.2-0.3c-0.1-0.1-0.1-0.2-0.2-0.3
	c-0.1-0.1-0.1-0.2-0.1-0.3c0-0.1-0.1-0.2-0.2-0.2c-0.1-0.2-0.1-0.3-0.3-0.4c-0.1-0.1-0.2-0.2-0.2-0.2c-0.1,0,0,0.1,0,0.1
	c0.1,0.1,0.1,0.1,0.1,0.2c0.1,0.2,0.1,0.3,0.2,0.4c0,0.1,0.1,0.3,0.2,0.3c0.1,0.1,0.1,0.2,0.2,0.3c0.1,0.1,0.1,0.3,0.2,0.4
	c0.1,0.1,0.1,0.2,0.2,0.3c0.1,0.2,0.2,0.4,0.3,0.5c0.1,0.1,0.1,0.3,0.2,0.4c0.1,0.2,0.3,0.4,0.4,0.6c0.1,0.1,0.2,0.3,0.2,0.4
	c0.1,0.1,0.2,0.2,0.3,0.3c0.1,0.1,0.1,0.3,0.2,0.5c0.1,0.1,0.2,0.2,0.3,0.3c0.1,0.2,0.2,0.4,0.4,0.6c0.1,0.1,0.2,0.2,0.3,0.3
	c0.1,0.1,0.2,0.3,0.3,0.4c0.1,0.1,0.2,0.2,0.3,0.3c0.1,0.2,0.5,0.7,0.5,0.7c-0.2,0-0.6-0.4-0.8-0.6c-0.1-0.1-0.3-0.2-0.4-0.4
	c-0.1-0.2-0.2-0.4-0.4-0.6c-0.1-0.1-0.1-0.1-0.2-0.2c-0.1-0.1-0.2-0.3-0.3-0.4c0,0-0.1-0.1-0.1-0.1c-0.2-0.2-0.3-0.5-0.5-0.7
	c-0.1-0.1-0.2-0.2-0.2-0.3c-0.1-0.1-0.1-0.2-0.1-0.2c-0.1-0.1-0.2-0.2-0.2-0.3c-0.1-0.1-0.1-0.2-0.1-0.2c-0.1-0.1-0.2-0.3-0.3-0.4
	c-0.1-0.1-0.1-0.3-0.2-0.4c-0.2-0.3-0.4-0.6-0.6-0.9c0-0.1-0.1-0.2-0.1-0.2c-0.2-0.2-0.3-0.5-0.4-0.7c-0.1-0.1-0.1-0.2-0.1-0.3
	c-0.1-0.1-0.2-0.2-0.2-0.3c-0.1-0.1-0.1-0.2-0.1-0.3c-0.1-0.1-0.1-0.2-0.2-0.4c0-0.1-0.1-0.1-0.1-0.2c-0.2-0.3-0.3-0.6-0.5-0.9
	c-0.1-0.2-0.2-0.3-0.3-0.5c-0.1-0.2-0.2-0.4-0.2-0.5c0-0.1-0.1-0.2-0.1-0.4c-0.1-0.2-0.2-0.3-0.3-0.5c-0.1-0.1-0.1-0.3-0.1-0.4
	c0-0.1-0.1-0.1-0.1-0.1c0,0-0.1,0.1,0,0.2c0.1,0.2,0.2,0.4,0.2,0.5c0.1,0.2,0.2,0.5,0.3,0.7c0.1,0.1,0.1,0.2,0.2,0.4
	c0.1,0.2,0.2,0.4,0.3,0.6c0.1,0.1,0.1,0.2,0.2,0.3c0,0.1,0.1,0.1,0.1,0.2c0.1,0.1,0.1,0.3,0.1,0.4c0.1,0.1,0.2,0.3,0.2,0.4
	c0.3,0.7,0.7,1.4,1.1,2.1c0.1,0.2,0.2,0.4,0.3,0.6c0.1,0.2,0.3,0.3,0.4,0.5c0.1,0.2,0.1,0.4,0.2,0.5c0.1,0.2,0.3,0.4,0.5,0.7
	c0,0.1,0.1,0.1,0.1,0.2c0.1,0.1,0.1,0.2,0.2,0.3c0.1,0.1,0.1,0.3,0.2,0.4c0.1,0.1,0.2,0.2,0.3,0.3c0.1,0.1,0.2,0.3,0.3,0.5
	c0.1,0.1,0.2,0.2,0.3,0.3c0.1,0.2,0.6,0.7,0.7,0.9c0.2,0.2,0.5,0.6,0.7,0.9c0.1,0.1,0.2,0.3,0.2,0.4c-0.1,0.1-0.5-0.4-0.6-0.5
	c-0.2-0.2-0.3-0.4-0.5-0.6c0,0-0.5-0.4-0.5-0.5c0-0.1-0.1-0.1-0.1-0.2c-0.1-0.2-0.2-0.4-0.3-0.5c-0.1-0.1-0.1-0.1-0.2-0.2
	c-0.1-0.1-0.2-0.3-0.3-0.4c-0.1-0.2-0.3-0.4-0.5-0.6c-0.2-0.2-0.3-0.5-0.4-0.7c-0.1-0.1-0.2-0.2-0.3-0.3c0-0.1,0-0.1-0.1-0.2
	c-0.1-0.1-0.1-0.2-0.2-0.3c0-0.1-0.1-0.2-0.1-0.3c-0.2-0.3-0.3-0.5-0.5-0.8c-0.1-0.1-0.1-0.2-0.2-0.4c-0.1-0.2-0.3-0.4-0.4-0.6
	c-0.1-0.2-0.2-0.5-0.4-0.8c-0.1-0.2-0.2-0.3-0.3-0.5c-0.1-0.2-0.2-0.4-0.3-0.5c-0.1-0.2-0.2-0.3-0.3-0.5c-0.1-0.2-0.1-0.3-0.2-0.5
	c0-0.1-0.1-0.2-0.2-0.3c-0.1-0.1-0.1-0.2-0.1-0.4c-0.1-0.3-0.4-0.6-0.5-1c-0.1-0.2-0.2-0.5-0.3-0.7c0-0.1-0.1-0.3-0.1-0.4
	c-0.1-0.3-0.3-0.6-0.4-0.9c-0.1-0.2-0.1-0.3-0.2-0.5c0,0,0-0.1,0-0.1c-0.1-0.1-0.1-0.3-0.2-0.4c0-0.2-0.1-0.3-0.2-0.5
	c-0.2-0.5-0.4-1.1-0.6-1.7c0-0.1,0-0.2-0.1-0.3c-0.1-0.3-0.2-0.6-0.3-0.8c-0.1-0.1-0.2-0.1-0.2,0.1c0,0.2,0.1,0.2,0.1,0.4
	c0,0.1,0,0.2,0,0.2c0,0.1,0.1,0.2,0.1,0.3c0.1,0.2,0.1,0.3,0.1,0.5c0.1,0.2,0.2,0.4,0.2,0.7c0,0.1,0,0.2,0.1,0.3
	c0,0.1,0.1,0.2,0.1,0.3C8,14.5,8.1,14.7,8.2,15c0,0.2,0.1,0.3,0.1,0.5c0,0.1,0.1,0.2,0.1,0.3c0,0.1,0,0.2,0.1,0.2
	c0.1,0.2,0.1,0.4,0.2,0.5C8.8,16.7,8.9,16.9,9,17c0,0.1,0,0.1,0.1,0.2c0.2,0.5,0.4,1,0.6,1.4c0.1,0.1,0.1,0.2,0.1,0.3
	c0,0.1,0.1,0.2,0.1,0.3c0,0.1,0,0.1,0.1,0.2c0.1,0.1,0.2,0.2,0.2,0.4c0.2,0.4,0.3,0.7,0.6,1c0.2,0.3,0.3,0.7,0.4,1
	c0.1,0.2,0.2,0.3,0.3,0.5c0,0.1,0.1,0.2,0.1,0.2c0.1,0.2,0.2,0.3,0.3,0.5c0.1,0.1,0.1,0.2,0.2,0.3c0,0.1,0.1,0.4,0.1,0.4
	c0,0-0.2-0.1-0.3-0.1c-0.1-0.1-0.2-0.2-0.3-0.4c0-0.1-0.1-0.3-0.2-0.3c-0.1-0.2-0.3-0.4-0.4-0.6c-0.1-0.1-0.1-0.3-0.2-0.4
	c-0.1-0.2-0.2-0.5-0.4-0.7c-0.1-0.1-0.1-0.2-0.2-0.3c-0.1-0.1-0.1-0.2-0.2-0.3c-0.1-0.2-0.3-0.5-0.4-0.7c-0.1-0.2-0.1-0.3-0.2-0.5
	c0-0.1-0.1-0.1-0.1-0.2c-0.1-0.1-0.1-0.2-0.1-0.3c-0.1-0.1-0.2-0.3-0.2-0.4c-0.1-0.3-0.2-0.5-0.3-0.8c-0.1-0.1-0.2-0.2-0.2-0.3
	c-0.1-0.2-0.1-0.4-0.2-0.6c-0.2-0.5-0.5-1-0.7-1.6c0-0.1,0-0.2-0.1-0.3c-0.1-0.2-0.2-0.5-0.3-0.7c0-0.1-0.1-0.2-0.1-0.3
	C7.1,13.8,7,13.6,7,13.5c0-0.1,0-0.1,0-0.2c-0.1-0.1-0.1-0.3-0.2-0.5c0-0.1-0.1-0.2-0.1-0.3c-0.1-0.2,0-0.4-0.1-0.5
	c-0.1-0.2-0.2-0.5-0.3-0.7c0-0.1-0.1-0.2-0.1-0.4c-0.1-0.1-0.1-0.3-0.2-0.5C6,10.4,6,10.3,5.9,10.1c0-0.1-0.1-0.2-0.1-0.4
	C5.7,9.5,5.7,9.3,5.6,9.1c0,0,0-0.1,0-0.1c0-0.1-0.1-0.1-0.1-0.1C5.4,8.9,5.4,9,5.4,9.1c0,0.2,0.1,0.3,0.1,0.4
	c0.1,0.1,0.1,0.3,0.1,0.4c0,0.1,0,0.2,0,0.3c0,0.1,0.1,0.2,0.1,0.4c0,0.1,0,0.2,0,0.3c0.1,0.3,0.2,0.6,0.3,0.8c0,0.1,0,0.3,0.1,0.4
	c0,0.1,0.1,0.3,0.1,0.4c0,0.1,0.1,0.2,0.1,0.3c0.1,0.1,0.1,0.2,0.1,0.4c0.1,0.2,0,0.3,0.1,0.5c0.1,0.3,0.2,0.5,0.3,0.7
	c0,0.1,0,0.2,0.1,0.3c0.1,0.2,0.1,0.4,0.2,0.6c0.1,0.3,0.2,0.6,0.4,0.9c0.1,0.3,0.1,0.6,0.2,0.9c0.1,0.1,0.2,0.2,0.3,0.3
	c0,0.1,0,0.2,0.1,0.3c0,0.1,0.1,0.2,0.1,0.3c0,0.1,0,0.2,0.1,0.3c0,0.1,0.1,0.2,0.2,0.3c0.1,0.2,0.1,0.4,0.2,0.5
	c0.1,0.1,0.2,0.2,0.2,0.4C9,19.7,9.1,19.8,9.1,20c0.1,0.2,0.2,0.4,0.3,0.7c0.1,0.2,0.1,0.4,0.2,0.6c0.1,0.2,0.2,0.3,0.3,0.5
	c0.1,0.1,0.1,0.3,0.2,0.4c0.1,0.1,0.1,0.2,0.2,0.3c0.1,0.1,0.2,0.3,0.2,0.4c0.1,0.1,0.1,0.2,0.1,0.3c0.1,0.1,0.2,0.3,0.2,0.4
	c0.1,0.1,0.2,0.3,0.2,0.4c0,0.1,0.1,0.2,0.2,0.3c0.1,0.1,0.2,0.2,0.2,0.3c0.1,0.1,0.1,0.4,0.1,0.5c-0.1,0-0.3-0.2-0.3-0.2
	c-0.2-0.2-0.2-0.5-0.4-0.7c-0.2-0.2-0.3-0.4-0.4-0.6c-0.1-0.2-0.2-0.4-0.3-0.6c-0.1-0.1-0.2-0.2-0.3-0.4c-0.1-0.1-0.1-0.3-0.1-0.4
	c-0.1-0.2-0.2-0.3-0.3-0.5c-0.1-0.2-0.1-0.4-0.2-0.6c0-0.1-0.1-0.2-0.2-0.3c-0.1-0.1-0.1-0.2-0.1-0.3c-0.1-0.2-0.3-0.4-0.4-0.7
	c-0.1-0.2-0.2-0.5-0.3-0.8c-0.1-0.1-0.2-0.2-0.2-0.4C8,18.6,8,18.4,7.9,18.3c-0.1-0.1-0.1-0.2-0.2-0.3c-0.1-0.2-0.1-0.3-0.2-0.5
	c-0.2-0.4-0.3-0.7-0.5-1.1C7,16.2,7,16.1,6.9,15.9c-0.1-0.1-0.1-0.2-0.2-0.4c-0.1-0.3-0.2-0.7-0.3-1c-0.1-0.2-0.2-0.3-0.2-0.5
	c-0.1-0.3-0.1-0.6-0.2-0.8c-0.2-0.4-0.3-0.9-0.4-1.3c0-0.1-0.1-0.3-0.1-0.4c0-0.1-0.1-0.2-0.1-0.4c0-0.1-0.1-0.2-0.1-0.4
	c-0.1-0.4-0.2-0.7-0.3-1.1c0-0.1,0-0.2-0.1-0.4c0-0.1-0.1-0.1-0.1-0.2c0-0.1,0-0.2-0.1-0.2C4.5,8.7,4.5,8.4,4.4,8.1
	c0-0.1,0-0.2-0.1-0.3C4.2,7.4,4.2,7,4,6.6c0-0.1-0.1-0.1-0.1-0.1c-0.1,0-0.1,0.1,0,0.2c0,0.2,0.1,0.3,0.1,0.5c0,0.1,0,0.2,0,0.2
	c0,0.1,0,0.1,0,0.2C4.1,7.8,4.1,8,4.2,8.3c0,0.1,0,0.3,0,0.4C4.3,9,4.4,9.4,4.5,9.8c0.1,0.3,0.1,0.6,0.2,1c0,0.1,0,0.3,0.1,0.4
	c0,0.1,0.1,0.2,0.1,0.3c0,0.1,0,0.2,0.1,0.2c0.1,0.2,0.1,0.5,0.2,0.7c0.1,0.2,0.1,0.3,0.2,0.5c0,0.1,0,0.1,0,0.2
	c0,0.2,0.1,0.3,0.1,0.5c0.1,0.3,0.2,0.7,0.3,1C6,14.7,6,14.8,6,15c0.2,0.7,0.5,1.3,0.7,2c0,0.1,0.1,0.3,0.1,0.4
	C7,17.6,7,17.7,7.1,17.9c0.1,0.2,0.1,0.4,0.2,0.5c0.1,0.2,0.2,0.4,0.3,0.6c0,0.1,0.1,0.2,0.1,0.3c0,0.1,0.1,0.2,0.1,0.2
	c0.1,0.1,0.1,0.3,0.1,0.4c0.1,0.1,0.2,0.2,0.3,0.4c0.1,0.1,0.1,0.3,0.1,0.4c0.1,0.2,0.2,0.4,0.3,0.6c0,0.1,0.1,0.2,0.1,0.3
	c0,0.1,0.1,0.2,0.2,0.3c0,0,0,0,0,0c0,0,0,0,0,0.1c0,0,0,0.1,0,0.1c0,0.1,0.1,0.2,0.1,0.2c0,0,0.1,0.1,0.1,0.1c0,0,0,0,0.1,0.1
	c0.1,0.1,0.1,0.3,0.2,0.5c0.1,0.1,0.2,0.3,0.3,0.4c0.1,0.1,0.1,0.4,0,0.4c-0.3,0-0.3-0.4-0.4-0.6c-0.1-0.2-0.2-0.3-0.3-0.5
	c0,0,0-0.1-0.1-0.2c0-0.1,0-0.1-0.1-0.2c0-0.1,0-0.1-0.1-0.1c0-0.1-0.1-0.2-0.1-0.2c0,0,0,0,0,0c-0.1-0.2-0.2-0.5-0.3-0.6
	c0-0.1-0.1-0.1-0.2-0.2C8.1,21.1,8.1,21,8,20.9c-0.1-0.1-0.1-0.2-0.2-0.4c-0.1-0.1-0.1-0.3-0.1-0.5c0-0.1-0.1-0.2-0.1-0.2
	c-0.1-0.2-0.1-0.4-0.2-0.5c0-0.1-0.1-0.2-0.2-0.2C7.1,18.9,7,18.7,7,18.6c-0.2-0.3-0.3-0.6-0.5-0.9c-0.1-0.2-0.1-0.4-0.2-0.5
	c-0.1-0.2-0.2-0.3-0.2-0.4c0-0.1-0.1-0.2-0.1-0.3c-0.1-0.2-0.1-0.3-0.2-0.5c0-0.1-0.1-0.4-0.1-0.5c0-0.1-0.1-0.3-0.2-0.4
	c-0.1-0.2-0.1-0.4-0.2-0.6c-0.1-0.1-0.1-0.3-0.2-0.4c0-0.1-0.1-0.2-0.1-0.4c0-0.1-0.1-0.2-0.1-0.3c0-0.1-0.1-0.3-0.1-0.4
	c-0.1-0.2-0.1-0.3-0.2-0.5c0-0.1,0-0.4-0.1-0.5c-0.2-0.5-0.3-1-0.5-1.5C4,10.3,4,10,3.9,9.8c0-0.1,0-0.2,0-0.3
	c0-0.1-0.1-0.3-0.1-0.4c0-0.1,0-0.2-0.1-0.3c0-0.1-0.1-0.2-0.1-0.3C3.5,8.2,3.4,7.9,3.3,7.6c0-0.1,0-0.3-0.1-0.4
	C3.2,6.9,3.1,6.4,3,6.1C3,6,3,5.9,3,5.8C2.8,5.1,2.7,4.3,2.5,3.6c0-0.1,0-0.3,0-0.4c0-0.2-0.1-0.3-0.1-0.4c0-0.1,0-0.1,0-0.2
	c0-0.1-0.1-0.2-0.1-0.2c-0.1,0-0.1,0.1-0.1,0.2c0,0.2,0,0.3,0.1,0.4c0,0.1,0,0.2,0,0.3C2.3,3.5,2.3,3.8,2.3,4c0,0.1,0,0.2,0,0.3
	c0,0.1,0.1,0.2,0.1,0.3c0,0.1,0,0.3,0,0.5c0,0.1,0.1,0.3,0.1,0.4c0,0.1,0,0.2,0,0.3c0,0.1,0.1,0.2,0.1,0.3c0,0.1,0,0.3,0,0.4
	C2.9,7.1,3,7.8,3.2,8.4c0,0.1,0,0.2,0,0.3c0.1,0.5,0.3,1.1,0.4,1.6c0,0.1,0,0.2,0,0.3c0.1,0.2,0.1,0.4,0.1,0.6c0,0.1,0,0.2,0,0.2
	C3.9,11.5,4,11.7,4,11.9c0,0.1,0,0.2,0,0.3c0,0.1,0.1,0.2,0.1,0.2c0,0.1,0,0.2,0.1,0.3c0,0.1,0.1,0.1,0.1,0.2c0,0.1,0,0.2,0.1,0.3
	c0,0.1,0.1,0.3,0.2,0.4c0,0.1,0,0.2,0.1,0.3c0.1,0.2,0.2,0.4,0.2,0.6c0.1,0.2,0.1,0.3,0.1,0.5c0,0.1,0.1,0.2,0.1,0.3
	c0,0.1,0,0.2,0.1,0.2c0,0.1,0.1,0.2,0.2,0.3c0,0.1,0,0.3,0.1,0.4c0,0.1,0.1,0.2,0.1,0.3c0,0.1,0,0.2,0.1,0.4c0,0.1,0.1,0.2,0.1,0.3
	c0,0.1,0.1,0.2,0.1,0.3c0,0.1,0.1,0.1,0.1,0.2C6,17.8,6,17.9,6.1,18c0.1,0.2,0.1,0.4,0.1,0.6c0,0.1,0,0.2,0,0.2
	c-0.1,0-0.2-0.1-0.2-0.2c-0.1-0.1-0.2-0.3-0.2-0.4c0-0.1,0-0.1-0.1-0.2c-0.1-0.1-0.1-0.3-0.1-0.4c0-0.1-0.1-0.2-0.1-0.3
	c0-0.1,0-0.3-0.1-0.4c0-0.1-0.1-0.2-0.2-0.3c0-0.1,0-0.2-0.1-0.3c0-0.1-0.1-0.2-0.2-0.3c0-0.1,0-0.2-0.1-0.3c0-0.1-0.1-0.3-0.1-0.4
	c-0.1-0.1-0.1-0.2-0.2-0.4c0-0.1,0-0.1-0.1-0.2c0-0.1-0.1-0.2-0.1-0.3c0-0.1,0-0.1-0.1-0.2c0-0.1-0.1-0.2-0.1-0.3
	c0-0.1,0-0.2-0.1-0.3C4.1,13.8,4,13.6,4,13.4c0-0.1,0-0.2-0.1-0.4c0-0.1-0.1-0.3-0.2-0.4c0-0.1,0-0.2-0.1-0.3
	c-0.1-0.1-0.1-0.3-0.2-0.4c0-0.1,0-0.3-0.1-0.4c-0.1-0.3-0.2-0.6-0.3-0.9C3,10.3,3,9.9,2.9,9.6C2.9,9.3,2.8,9.1,2.7,8.9
	c0-0.1,0-0.2-0.1-0.4C2.6,8.2,2.5,7.9,2.4,7.6c0-0.1,0-0.3-0.1-0.5c0-0.2,0-0.3-0.1-0.5c0-0.1-0.1-0.2-0.1-0.3c0-0.1,0-0.3,0-0.4
	c0-0.1-0.2-0.7-0.2-0.8c0-0.1,0-0.3,0-0.4c0,0-0.1-0.3-0.1-0.4c0-0.1,0-0.1,0-0.3c0-0.1-0.1-0.4-0.1-0.5c0-0.1,0-0.3,0-0.3
	c0-0.1-0.1-0.3-0.1-0.4c0-0.2,0-0.3-0.1-0.5c0-0.1-0.1-0.2-0.1-0.3c0-0.1-0.1-0.2-0.1-0.3c0-0.1,0-0.3,0-0.3c0-0.1,0-0.3-0.1-0.4
	c0-0.2-0.1-0.4-0.1-0.5c0-0.1,0-0.1,0-0.2C1,0.2,0.9,0,0.8,0C0.8,0,0.7,0.1,0.8,0.2c0,0.1,0,0.3,0.1,0.4c0,0.1,0,0.3,0,0.3
	c0,0.1,0,0.1,0,0.2c0,0,0,0.1,0,0.2c0,0.1,0,0.2,0,0.2c0,0.1,0,0.1,0,0.2c0,0,0,0.1,0,0.1C1,2,1,2,1,2c0,0.1,0,0.1,0,0.2
	c0,0.1,0,0.1,0,0.2c0,0.1,0.1,0.3,0.1,0.5c0,0.2,0,0.4,0.1,0.5c0,0.1,0,0.2,0,0.3c0,0.1,0.1,0.3,0.1,0.4c0,0.1,0,0.2,0,0.3
	c0,0.2,0.2,0.4,0.2,0.5c0,0.1,0,0.3,0,0.4c0,0.1,0.1,0.3,0.1,0.3c0,0.1,0,0.1,0,0.2c0,0.1,0.1,0.3,0.1,0.4c0,0.1,0,0.1,0,0.2
	c0,0.1,0.1,0.4,0.1,0.5c0,0.1,0,0.2,0,0.3C1.9,7.4,2,7.5,2,7.6c0,0.1,0,0.2,0,0.3c0,0.1,0.1,0.3,0.1,0.4c0,0.1,0,0.2,0,0.3
	c0,0.2,0.1,0.4,0.1,0.7c0,0.1,0.1,0.2,0.1,0.4c0,0.1,0,0.2,0.1,0.3c0,0.1,0.1,0.2,0.1,0.3c0,0.1,0,0.2,0,0.3c0,0.1,0.1,0.2,0.1,0.3
	c0,0.1,0,0.2,0,0.2c0,0.1,0.1,0.2,0.1,0.3c0,0.1,0,0.2,0,0.3C3,11.8,3,11.9,3.1,12c0,0.1,0,0.2,0.1,0.4c0.1,0.3,0.2,0.6,0.2,0.8
	c0,0.1,0,0.3,0.1,0.4c0,0.1,0.1,0.2,0.1,0.2c0,0.1,0,0.2,0,0.3c0,0.2,0.1,0.4,0.1,0.5C3.8,14.8,3.9,15,4,15.1
	C4,15.3,4,15.5,4.1,15.7c0.1,0.2,0.1,0.3,0.2,0.5c0.1,0.1,0,0.3,0.1,0.4c0.1,0.1,0.2,0.3,0.2,0.4c0.1,0.2,0.1,0.3,0.2,0.5
	c0,0.1,0,0.1,0,0.2C4.8,18,5,18.1,5,18.4c0,0.1,0,0.2,0.1,0.3c0.1,0.2,0.1,0.3,0.2,0.5c0.1,0.1,0.1,0.3,0.2,0.4
	c0.1,0.1,0.1,0.2,0.1,0.4c0.1,0.1,0.1,0.3,0.2,0.4c0,0.1,0,0.1,0.1,0.2c0.2,0.3,0.3,0.7,0.5,1c0.1,0.2,0.1,0.4,0.2,0.6
	c0.1,0.1,0.1,0.3,0.2,0.4c0,0.1,0.1,0.2,0.1,0.3C7,23,7.1,23.2,7.2,23.3c0,0,0.1,0.2,0.1,0.3c0,0,0,0,0,0c-0.1,0-0.2-0.1-0.2-0.1
	c-0.2-0.2-0.3-0.6-0.4-0.9c0-0.1-0.1-0.2-0.1-0.3c0-0.1,0-0.1-0.1-0.2c-0.1-0.2-0.2-0.3-0.3-0.5C6,21.6,6,21.4,5.9,21.3
	c-0.2-0.5-0.5-1.1-0.8-1.6C5,19.4,5,19.2,4.9,18.9c-0.1-0.2-0.2-0.3-0.2-0.4c-0.1-0.1-0.1-0.2-0.1-0.4c-0.1-0.2-0.2-0.3-0.2-0.5
	c0-0.1-0.1-0.2-0.1-0.3c-0.1-0.1-0.1-0.2-0.2-0.3C4,16.8,4,16.6,4,16.5c0-0.1-0.1-0.2-0.1-0.3c0-0.1,0-0.2-0.1-0.3
	c-0.1-0.2-0.2-0.4-0.3-0.6c-0.1-0.1,0-0.3-0.1-0.5c0-0.1-0.1-0.2-0.2-0.3c-0.1-0.1,0-0.3,0-0.4c0-0.1-0.1-0.3-0.1-0.4
	c0-0.1,0-0.2-0.1-0.2c-0.1-0.2-0.1-0.3-0.2-0.5c0-0.1,0-0.2-0.1-0.2c0-0.1-0.1-0.2-0.2-0.3c0-0.2-0.1-0.3-0.1-0.5
	c-0.1-0.2-0.1-0.4-0.2-0.6c0-0.1,0-0.1,0-0.2c-0.1-0.2-0.1-0.4-0.1-0.6c0-0.1,0-0.2,0-0.3C2,10.2,2,10,1.9,9.8c0-0.1,0-0.2-0.1-0.3
	C1.8,9.2,1.7,8.9,1.6,8.7c0-0.1,0-0.1,0-0.2C1.5,8.2,1.4,8,1.4,7.8c0-0.1,0-0.2-0.1-0.4c0-0.1-0.1-0.3-0.1-0.4c0-0.1,0-0.1,0-0.2
	c0-0.1,0-0.2,0-0.3C1.1,6.2,0.9,5.7,0.9,5.3c0-0.1,0-0.3,0-0.4c0-0.1,0-0.2,0-0.3c0-0.1-0.1-0.2-0.1-0.3c0-0.2,0-0.3,0-0.5
	c0,0,0,0,0,0c0-0.2-0.1-0.6-0.1-0.7c0-0.2,0-0.4-0.1-0.6c0-0.1,0-0.2,0-0.4c0-0.2-0.1-0.4-0.1-0.6c0-0.1,0-0.2,0-0.4
	c0-0.1,0-0.2-0.1-0.2C0.1,1,0.1,1.1,0.1,1.2c0,0.2,0,0.5,0,0.6c0,0.2,0,0.5,0,0.7c0,0.1,0.1,0.3,0.1,0.4c0,0.2,0.1,0.4,0.1,0.7v0
	c0,0.1,0,0.2,0,0.3c0,0,0,0,0,0c0,0,0,0,0,0c0,0,0,0,0,0h0c0,0,0,0.1,0,0.1c0,0.1,0,0.2,0,0.2C0.5,4.5,0.5,4.8,0.5,5
	c0.1,0.4,0.2,0.8,0.3,1.1c0,0.1,0,0.2,0,0.3c0,0.1,0.1,0.2,0.1,0.3c0,0.1,0,0.3,0,0.4C1,7.4,1,7.5,1.1,7.7c0,0.2,0,0.3,0.1,0.5
	c0,0.2,0.1,0.3,0.1,0.5c0,0.2,0.1,0.4,0.1,0.6c0,0.2,0.1,0.4,0.2,0.5c0,0.1,0,0.1,0,0.2c0,0.1,0.1,0.3,0.1,0.4c0,0.1,0,0.1,0,0.2
	c0.1,0.2,0.1,0.5,0.2,0.8c0,0.1,0,0.1,0,0.2C2,11.7,2,11.8,2,11.9c0,0.1,0,0.2,0,0.3c0,0.1,0.1,0.2,0.1,0.4c0,0.1,0,0.2,0.1,0.3
	c0,0.1,0.1,0.2,0.1,0.3c0.1,0.2,0.1,0.4,0.2,0.7c0,0.1,0.1,0.2,0.1,0.4c0,0.1,0,0.3,0.1,0.4C2.8,14.7,2.9,15,3,15.2
	c0.1,0.2,0.1,0.5,0.2,0.8c0,0.1,0,0.2,0.1,0.3c0.1,0.2,0.1,0.5,0.2,0.7c0,0.1,0,0.2,0.1,0.4c0.1,0.2,0.2,0.4,0.3,0.6
	c0.1,0.2,0.1,0.3,0.1,0.5c0.1,0.2,0.2,0.4,0.3,0.7c0.1,0.2,0.1,0.3,0.1,0.5c0.1,0.1,0.1,0.3,0.2,0.4c0,0.1,0.1,0.2,0.1,0.3
	c0,0.1,0.1,0.2,0.2,0.3C5,20.8,5,20.9,5,21.1c0.1,0.3,0.2,0.5,0.3,0.8c0,0.1,0,0.2,0.1,0.3c0.1,0.2,0.2,0.3,0.2,0.5
	c0.1,0.1,0.1,0.3,0.2,0.5C5.9,23.2,6,23.3,6,23.7c0,0,0,0,0,0.1c-0.1,0-0.1-0.1-0.2-0.1c-0.2-0.2-0.2-0.3-0.3-0.5
	c-0.2-0.3-0.3-0.6-0.5-1c-0.1-0.2-0.1-0.4-0.2-0.5c0-0.1-0.1-0.2-0.2-0.3c-0.1-0.2-0.1-0.3-0.2-0.5c-0.1-0.2-0.2-0.4-0.3-0.7
	c0-0.1,0-0.2-0.1-0.3c0-0.1-0.1-0.2-0.1-0.3c-0.1-0.1-0.1-0.3-0.2-0.5c-0.1-0.3-0.3-0.6-0.4-0.8c-0.1-0.3-0.1-0.5-0.2-0.8
	c0-0.1-0.1-0.2-0.1-0.3c0-0.1,0-0.2-0.1-0.3c-0.1-0.2-0.2-0.5-0.3-0.7c0-0.1-0.1-0.2-0.1-0.3c-0.1-0.1-0.1-0.3-0.2-0.5
	c-0.1-0.2-0.1-0.4-0.1-0.6c-0.2-0.4-0.4-0.9-0.5-1.3c0-0.1,0-0.2,0-0.3c-0.1-0.2-0.1-0.5-0.2-0.7c-0.1-0.3-0.1-0.6-0.2-0.8
	c-0.1-0.3-0.2-0.7-0.3-1c0-0.1,0-0.2,0-0.3C0.9,10,0.8,9.7,0.7,9.5c0-0.1,0-0.3-0.1-0.4C0.6,9,0.5,9,0.5,9.2c0,0.1,0.1,0.3,0.1,0.4
	c0,0.1,0,0.2,0,0.3c0,0.2,0.1,0.3,0.2,0.5c0.1,0.2,0.1,0.3,0.1,0.5c0,0.1,0.1,0.2,0.1,0.3C1,11.3,1,11.5,1,11.7
	c0,0.1,0.1,0.3,0.1,0.4c0,0.1,0,0.2,0,0.3c0,0.2,0.1,0.3,0.1,0.5c0,0.1,0,0.2,0,0.3c0,0.1,0.1,0.3,0.1,0.4c0,0.1,0,0.3,0.1,0.4
	c0.1,0.2,0.2,0.5,0.2,0.7C1.9,14.7,1.9,15,2,15.2c0.2,0.4,0.3,0.9,0.4,1.3c0,0.1,0,0.2,0.1,0.3c0.1,0.2,0.1,0.4,0.2,0.5
	c0,0.1,0.1,0.2,0.1,0.2c0.1,0.1,0.1,0.2,0.1,0.3c0,0.1,0.1,0.2,0.1,0.3c0,0.1,0,0.3,0.1,0.4c0,0.1,0.1,0.2,0.1,0.3
	c0,0.1,0,0.2,0.1,0.3c0,0.1,0.1,0.2,0.2,0.3c0,0.1,0.1,0.2,0.1,0.3c0,0.1,0.1,0.2,0.1,0.3c0,0.1,0,0.2,0.1,0.3
	c0,0.1,0.1,0.2,0.1,0.3c0,0.1,0,0.2,0.1,0.3c0.1,0.2,0.2,0.3,0.2,0.5c0.1,0.1,0.1,0.2,0.1,0.4c0.1,0.1,0.1,0.3,0.2,0.4
	c0.1,0.2,0.1,0.4,0.2,0.5c0.1,0.3,0.2,0.6,0.3,0.9c0.1,0.2,0.2,0.4,0.3,0.6c0.1,0.1,0.1,0.3,0.1,0.4c0.1,0.1,0.2,0.2,0.2,0.4
	c0,0.1,0.1,0.3,0.1,0.4C6,25.8,6.1,26,6.2,26.1c0,0.1,0.1,0.2,0.1,0.3c0.1,0.2,0.2,0.3,0.3,0.5c0,0.1,0.1,0.2,0.1,0.4
	c0.1,0.2,0.2,0.4,0.3,0.5c0.1,0.1,0.1,0.3,0.2,0.4c0.1,0.2,0.2,0.3,0.3,0.5c0.1,0.1,0.2,0.3,0.3,0.5s0.2,0.3,0.2,0.4
	c0.1,0.1,0.2,0.3,0.2,0.4c0.1,0.1,0.2,0.3,0.3,0.4C8.7,30.7,8.8,31,9,31.2c0.1,0.2,0.2,0.3,0.3,0.5c0.3,0.4,0.7,1.2,0.9,1.4
	c0.2,0.2,0.3,0.4,0.4,0.7c0.1,0.2,0.2,0.3,0.4,0.5c0.1,0.1,0.2,0.3,0.3,0.4l0.1,0.1c3.9,4.9,7.9,8.2,11.3,10.4l0,0
	c1.8,1.1,2.7,1.4,2.7,1.4c0.2,0.1,0.1,0.3,0,0.3l-20,12.8c-0.1,0-0.2,0.2-0.2,0.3c0,0.1,0.2,0,0.3,0c16.1-5.6,27.8-10.3,34.9-13.7
	C47.6,42.9,50,40.9,49.7,39.9"/>
</svg>
