<?xml version="1.0" encoding="utf-8"?>
<!-- Generator: Adobe Illustrator 22.0.0, SVG Export Plug-In . SVG Version: 6.00 Build 0)  -->
<svg version="1.1" id="Layer_1" xmlns="http://www.w3.org/2000/svg" xmlns:xlink="http://www.w3.org/1999/xlink" x="0px" y="0px"
	 viewBox="0 0 64 64" style="enable-background:new 0 0 64 64;" xml:space="preserve">
<style type="text/css">
	.st0{fill:#FFFFFF;}
</style>
<g>
	<g id="Icon-Clock" transform="translate(378.000000, 428.000000)">
		<path id="Fill-131" class="st0" d="M-346.1-373.1c-12.6,0-22.9-10.3-22.9-22.9s10.3-22.9,22.9-22.9s22.9,10.3,22.9,22.9
			C-323.1-383.4-333.4-373.1-346.1-373.1L-346.1-373.1z M-346.1-416.5c-11.3,0-20.4,9.2-20.4,20.4s9.2,20.4,20.4,20.4
			s20.4-9.2,20.4-20.4S-334.8-416.5-346.1-416.5L-346.1-416.5z"/>
		<polyline id="Fill-132" class="st0" points="-338.9,-384.3 -347.4,-392.8 -347.4,-408.3 -344.7,-408.3 -344.7,-393.9 -337,-386.2 
			-338.9,-384.3 		"/>
	</g>
</g>
</svg>
