<?xml version="1.0" encoding="utf-8"?>
<!-- Generator: Adobe Illustrator 22.0.1, SVG Export Plug-In . SVG Version: 6.00 Build 0)  -->
<svg version="1.1"
	 id="svg12894" inkscape:version="0.91 r13725" sodipodi:docname="hong kong airport.svg" xmlns:cc="http://creativecommons.org/ns#" xmlns:dc="http://purl.org/dc/elements/1.1/" xmlns:inkscape="http://www.inkscape.org/namespaces/inkscape" xmlns:rdf="http://www.w3.org/1999/02/22-rdf-syntax-ns#" xmlns:sodipodi="http://sodipodi.sourceforge.net/DTD/sodipodi-0.dtd" xmlns:svg="http://www.w3.org/2000/svg"
	 xmlns="http://www.w3.org/2000/svg" xmlns:xlink="http://www.w3.org/1999/xlink" x="0px" y="0px" viewBox="0 0 173.6 90"
	 style="enable-background:new 0 0 173.6 90;" xml:space="preserve">
<style type="text/css">
	.st0{fill:#96D2C3;}
	.st1{fill:#FFFFFF;}
</style>
<sodipodi:namedview  bordercolor="#666666" borderopacity="1.0" fit-margin-bottom="0" fit-margin-left="0" fit-margin-right="0" fit-margin-top="0" id="base" inkscape:current-layer="layer1" inkscape:cx="86.28" inkscape:cy="44.495127" inkscape:document-units="px" inkscape:pageopacity="0.0" inkscape:pageshadow="2" inkscape:window-height="744" inkscape:window-maximized="1" inkscape:window-width="1280" inkscape:window-x="-4" inkscape:window-y="-4" inkscape:zoom="5.2445526" pagecolor="#ffffff" showgrid="false" units="px">
	</sodipodi:namedview>
<g id="layer1" transform="translate(1277.7086,-735.43851)" inkscape:groupmode="layer" inkscape:label="Layer 1">
	<g id="g13234" transform="translate(-1280.1206,730.05177)">
		<path id="path13136" inkscape:connector-curvature="0" class="st0" d="M126.6,47.3c-1.1,0.5-2.1,1-3.1,1.6
			c1.5-2.4,2.8-5.3,3.4-8.5c0.7-3.4,0.6-9.2-6.5-9.2c-4.8,0-10.3,3.3-13.5,5.6c2.2-3.2,4.1-6.5,5.4-9.8c3.4-8.8,3.4-20.5-10.9-21.2
			C63.9,4,2.9,59.4,2.9,59.4h32.2c30-25.2,56.9-39.4,63.5-32.6c4.2,4.4-1.3,17.1-13.4,33.1c16.7-14.6,29-20.5,32.9-16.3
			c2.3,2.4,0.2,9.8-4.5,16.3c1.4-1.2,2.9-2.5,5.3-3.9c4.3-2.5,10-4.6,12.4-2.5c1.4,1.3,1.4,3.8,0.4,6.6c1.4-1.6,3.2-4.2,3.9-7.4
			C136.9,46.9,133.1,44.5,126.6,47.3"/>
		<rect id="rect13138" x="84.8" y="67.7" class="st1" width="0.5" height="27"/>
		<path id="path13140" inkscape:connector-curvature="0" class="st1" d="M53.6,68.5v0.8c0.3,0,1.9,0,4.4-0.2l0.1,0v1.3h-5.5v0.8h4.5
			l-0.2,0.1c-1,0.6-2.5,1.5-4.5,2.3v0.9c2.7-1.2,4.7-2.3,5.6-2.9l0.1-0.1v2.9h-4c-0.2,0-0.4,0.2-0.4,0.4v4.6c0,0.2,0.2,0.4,0.4,0.4
			h8.8c0.2,0,0.4-0.2,0.4-0.4v-4.6c0-0.2-0.2-0.4-0.4-0.4h-4v-2.9l0.1,0.1c0.9,0.6,2.9,1.8,5.6,2.9v-0.9c-2-0.9-3.6-1.8-4.6-2.4
			l-0.2-0.1h4.5v-0.8h-5.5v-1.3l0.1,0c1.4-0.1,2.8-0.2,4.1-0.3v-0.8C58.2,68.4,54.3,68.5,53.6,68.5 M54.5,75.3h8v1.5h-8V75.3z
			 M54.5,77.6h8v1.5h-8V77.6z"/>
		<path id="path13142" inkscape:connector-curvature="0" class="st1" d="M24,87c-0.2,0-0.4,0.2-0.4,0.4V90c0,0.2,0.2,0.4,0.4,0.4
			h3.1c0.2,0,0.4-0.2,0.4-0.4v-2.6c0-0.2-0.2-0.4-0.4-0.4C27.1,87,24,87,24,87z M24.4,87.8h2.3v1.8h-2.3V87.8z"/>
		<path id="path13144" inkscape:connector-curvature="0" class="st1" d="M23.6,92v0.9c0.2-0.1,3.8-1.2,3.9-1.2v-0.9
			C27.3,90.9,23.7,92,23.6,92"/>
		<path id="path13146" inkscape:connector-curvature="0" class="st1" d="M22.2,83.2c-0.2,0-0.4,0.2-0.4,0.4v10.7
			c0,0.2,0.2,0.4,0.4,0.4h10.3c0.2,0,0.4-0.2,0.4-0.4V83.6c0-0.2-0.2-0.4-0.4-0.4H22.2z M30.1,84h2.1v9.9h-9.5V84h4.6l0.4,1.3h-4
			v0.8h4.2l1.1,4.3l0,0c-0.4,0.7-0.8,1.2-1.2,1.6v1.1c0.5-0.3,1-0.8,1.4-1.4l0.1-0.1l0.1,0.3c0.2,0.7,0.8,1.3,1.5,1.3h0.5v-0.9h-0.5
			c-0.2,0-0.5-0.3-0.6-0.6c0,0-0.3-1.1-0.3-1.1l0,0c0.7-1.4,1.1-2.9,1.2-3.5h-0.9c-0.1,0.5-0.3,1.2-0.6,2l-0.1,0.2l-0.8-3h2.5v-0.8
			h-0.5C30.6,85.3,30.1,84,30.1,84z M28.1,84h1l0.6,1.3h-1.2L28.1,84z"/>
		<path id="path13148" inkscape:connector-curvature="0" class="st1" d="M57.7,83.2c0,0.1-1.2,1.7-1.2,1.7c-0.1,0.1-0.1,0.2-0.1,0.2
			c0,0.1,0,0.1,0,0.2c0.1,0.1,0.2,0.2,0.4,0.2h1.1l-1.8,2.3l-1.2-1.6H56v-0.8h-1.2v-2.2H54v2.2h-1.3v0.8h0.9l0,0.1
			c-0.2,0.8-0.8,2.8-1.6,4.6H53c0.3-0.8,0.6-1.6,0.9-2.5l0.2,0v6.3h0.8v-7.2c0,0,0.9,1.3,1,1.4c0.1-0.1,0.6-0.4,0.6-0.4h2.6
			c0.2,0,0.4-0.2,0.4-0.4v-1.2h-0.8v0.8h-1.4l1.7-2.3c0-0.1,0.1-0.2,0.1-0.2l0-0.2c-0.1-0.1-0.2-0.2-0.4-0.2h-1.1c0,0,1-1.4,1.1-1.5
			C58.7,83.2,57.7,83.2,57.7,83.2z"/>
		<path id="path13150" inkscape:connector-curvature="0" class="st1" d="M59.1,82.8c0,0.2,1.5,6.5,1.5,6.5H56v0.8h1.3l-0.5,2.7
			c-0.2,0.9-0.6,1.1-0.9,1.1v0.8c0.6,0,1.4-0.4,1.8-1.8l0.2-1.1l0.1,0.1c0.4,0.3,0.9,0.7,1.5,1c0.1-0.1,0.3-0.6,0.4-0.7
			c-1.2-0.6-1.6-1.1-1.8-1.3l0,0l0.1-0.8h2.7l0,0.1c0.3,1,0.5,1.7,0.6,2.3l0,0l0,0c-0.7,0.5-1.4,1-2.3,1.3v0.9
			c1-0.3,1.8-0.8,2.6-1.4l0.1-0.1l0,0.1c0.5,1,1.1,1.4,2,1.4h0.5v-0.8h-0.5c-0.6,0-1-0.2-1.4-1.2l0,0l0,0c0.9-0.8,1.3-1.6,1.4-2
			h-0.9c-0.2,0.3-0.4,0.6-0.8,1.1l-0.1,0.1l-0.5-1.8h0.1h2.7v-0.8h-1.1l-0.2-0.8h0.9c0.2,0,0.4-0.2,0.4-0.4v-1.2h-0.8v0.8h-1.4
			l1.7-2.3c0.1-0.1,0.1-0.2,0.1-0.2l0-0.2c-0.1-0.1-0.2-0.2-0.4-0.2h-1.2c0,0,1-1.4,1.1-1.6h-1c0,0.1-1.2,1.7-1.2,1.7
			c0,0.1-0.1,0.2-0.1,0.2c0,0.1,0,0.1,0,0.2c0.1,0.1,0.2,0.2,0.4,0.2h1.1l-1.7,2.2c0,0-1.2-4.9-1.2-5C60,82.8,59.1,82.8,59.1,82.8z
			 M61.3,88.5l0.1,0h0.9l0.2,0.8h-1C61.5,89.3,61.3,88.5,61.3,88.5z"/>
		<path id="path13152" inkscape:connector-curvature="0" class="st1" d="M37.4,83.2c-0.1,0-0.2,0-0.3,0.1C37,83.4,37,83.5,37,83.6
			v11.1h0.8v-3h0.8c0.7,0,1.2-0.2,1.5-0.6c0.2-0.2,0.2-0.5,0.2-0.9c0-0.3-0.1-0.7-0.2-1.1c-0.2-0.5-0.8-1.7-1-2.1l0,0l1-3.3
			c0,0,0-0.1,0-0.1c0-0.1,0-0.2-0.1-0.2c-0.1-0.1-0.2-0.2-0.3-0.2C39.8,83.2,37.4,83.2,37.4,83.2z M37.8,84h1.5l-0.9,2.9l0,0.1
			c0,0.1,0,0.1,0,0.2c0.3,0.6,0.9,1.7,1,2.1c0.1,0.3,0.2,0.6,0.2,0.8c0,0.2,0,0.3-0.1,0.4c-0.1,0.2-0.4,0.3-0.9,0.3h-0.8
			C37.8,90.9,37.8,84,37.8,84z"/>
		<path id="path13154" inkscape:connector-curvature="0" class="st1" d="M42.3,88.8h5.3V88h-5.3V88.8z M41,90.1v0.8h3.6v1.8
			c0,0.8-0.1,1.1-0.8,1.1h-0.4v0.8h0.4c1.6,0,1.6-1.4,1.6-1.9v-1.8h3.6v-0.8L41,90.1L41,90.1z M46.8,91.7c0.3,0.7,0.9,2.1,1.5,3h0.9
			c-0.4-0.8-1.1-2.2-1.5-3H46.8z M41.7,91.7c-0.4,0.9-1.1,2.3-1.5,3h0.9c0.5-0.9,1.2-2.3,1.5-3H41.7z"/>
		<path id="path13156" inkscape:connector-curvature="0" class="st1" d="M42.3,82.8c-0.5,0.8-1.6,2.3-2.6,3.1
			c0.1,0.1,0.5,0.5,0.5,0.6c0.1-0.1,0.5-0.4,0.5-0.4l0,0c0.2,0.1,0.8,0.5,1.2,0.8l0.1,0.1l0,0.1c-0.3,0.3-0.7,0.7-1,1v1.1
			c2-1.7,3.2-3.2,3.7-4.1l0.1-0.1l0.1,0.1c0.3,0.5,1.6,2.3,4.1,4.1v-1c-0.5-0.4-1.1-0.9-1.5-1.3l-0.1,0l0-0.1c0.6-0.7,1.2-1.8,1.5-3
			c0,0,0.1-0.3,0.1-0.4h-3V84h1.9l0,0.1c-0.2,0.5-0.6,1.3-1,1.9l-0.1,0.1L46.7,86c-0.8-0.9-1.3-1.6-1.5-2l0,0l0.1-0.3
			c0,0,0.1-0.4,0.1-0.5H43c0,0,0.2-0.3,0.2-0.4C43.2,82.8,42.3,82.8,42.3,82.8z M42.6,86.4c-0.4-0.3-0.9-0.6-1.2-0.8l-0.1,0l0.5-0.6
			l0,0c0.3,0.2,0.8,0.5,1.2,0.8l0.1,0L42.6,86.4L42.6,86.4z M43.6,85.1c-0.4-0.3-0.9-0.6-1.2-0.8l-0.1,0l0.2-0.2l0,0h1.8l-0.1,0.1
			c-0.2,0.3-0.4,0.6-0.6,1L43.6,85.1C43.6,85.1,43.6,85.1,43.6,85.1z"/>
		<path id="path13158" inkscape:connector-curvature="0" class="st1" d="M72.3,83.2c-0.2,0-0.4,0.2-0.4,0.4v3.6
			c0,0.2,0.2,0.4,0.4,0.4h6.1c0.2,0,0.4-0.2,0.4-0.4v-3.6c0-0.2-0.2-0.4-0.4-0.4H72.3z M72.7,84H78v1h-5.3V84z M72.7,85.8H78v1h-5.3
			V85.8z"/>
		<path id="path13160" inkscape:connector-curvature="0" class="st1" d="M68.8,83.1v1.8h-1.3v0.9h1.3v4.9c0,0-1.3,0.8-1.3,0.8v1
			c0.1-0.1,3.4-2.1,3.5-2.1v-1c-0.1,0.1-1.3,0.8-1.3,0.8v-4.4H71v-0.9h-1.3v-1.8C69.7,83.1,68.8,83.1,68.8,83.1z"/>
		<path id="path13162" inkscape:connector-curvature="0" class="st1" d="M71.3,88.4v0.8h1l-0.1,0.1c-0.4,0.8-1.1,2-2.2,3.3h1.1
			c0.4-0.6,0.8-1.1,1.2-1.7l0,0h1.5L73.8,91c-0.5,1-1.6,2.7-2.4,3.7h1.1c0.9-1.2,1.9-2.9,2.4-3.8l0,0h1.6L76.4,91
			c-0.4,1-1.3,2.6-2.1,3.7h1.1c0.8-1.2,1.7-2.8,2-3.8l0,0h1.3v2.2c0,0.5-0.3,0.8-1,0.8h-0.5v0.8h0.5c1.1,0,1.8-0.6,1.8-1.6v-2.6
			c0-0.2-0.2-0.4-0.4-0.4h-6.2l0.4-0.9l0.1,0h6.4v-0.8L71.3,88.4L71.3,88.4z"/>
		<path id="path13164" inkscape:connector-curvature="0" class="st1" d="M69.1,75.1c-0.3,0.9-0.9,3-1.7,4.8h0.9
			c0.8-2.1,1.5-4.3,1.6-4.8H69.1z"/>
		<path id="path13166" inkscape:connector-curvature="0" class="st1" d="M67.8,72.1c0.6,0.6,1.5,1.4,2.2,2.3v-1.2
			c-0.9-1-1.9-1.8-2.2-2.2V72.1z"/>
		<path id="path13168" inkscape:connector-curvature="0" class="st1" d="M76.5,68v1.4H74V68h-0.8v1.4H71v0.8h2.2v1.7h-2.7v0.8h2.4
			l-0.1,0.1c-0.4,0.6-1.2,1.6-2.3,2.8v1.1c0.5-0.5,1.1-1,1.5-1.5l0.1-0.1v3.2c0,0.5,0.2,0.9,0.4,1.1c0.6,0.5,1.4,0.5,1.4,0.5h4.7
			c0.2,0,0.4-0.2,0.4-0.4v-1.7h-0.8v1.3H74c0,0-0.5,0-0.8-0.3c-0.1-0.1-0.2-0.3-0.2-0.6v-0.9h4.5c0.2,0,0.4-0.2,0.4-0.4v-2.5
			l0.1,0.2c0.6,0.7,1.3,1.4,2,2.1v-1.1c-1.1-1.1-1.9-2.1-2.3-2.8l-0.1-0.1h2.4v-0.8h-2.7v-1.7h2.2v-0.8h-2.2V68
			C77.3,68,76.5,68,76.5,68z M74,70.2h2.5v1.7H74V70.2z M73,74c0.5-0.6,0.7-1.1,0.9-1.3l0,0h2.8l0,0c0.1,0.2,0.4,0.7,0.9,1.3
			l0.1,0.1h-4.7L73,74z M73,75h4.1v1.6H73V75z"/>
		<path id="path13170" inkscape:connector-curvature="0" class="st1" d="M67.8,69.2c0.6,0.6,1.5,1.4,2.2,2.3v-1.2
			c-0.9-1-1.9-1.8-2.2-2.2V69.2z"/>
		<polygon id="polygon13172" class="st1" points="95.6,70.1 95.6,67.9 96.7,67.9 96.7,73.5 95.6,73.5 95.6,71.1 91.8,71.1 
			91.8,73.5 90.7,73.5 90.7,67.9 91.8,67.9 91.8,70.1 		"/>
		<path id="path13174" inkscape:connector-curvature="0" class="st1" d="M101.4,67.7c2.5,0,3.4,1.5,3.4,3c0,1.2-0.7,2.9-3.4,2.9
			c-2.7,0-3.3-1.7-3.3-2.9C98.1,69.2,99,67.7,101.4,67.7 M103.7,70.7c0-1.4-1-2-2.3-2c-1.3,0-2.2,0.6-2.2,2c0,1.6,1.2,2,2.2,2
			C102.5,72.7,103.7,72.3,103.7,70.7"/>
		<polygon id="polygon13176" class="st1" points="112.2,73.5 111.2,73.5 107.3,69.3 107.3,73.5 106.2,73.5 106.2,67.9 107.4,67.9 
			111.2,71.9 111.2,67.9 112.2,67.9 		"/>
		<path id="path13178" inkscape:connector-curvature="0" class="st1" d="M119.8,70.6v3h-0.7l-0.2-0.6c-0.4,0.3-1,0.7-2.1,0.7
			c-1.4,0-3.2-0.7-3.2-2.9c0-1.5,0.9-3,3.2-3c1.3,0,2.7,0.5,3,1.9h-1.1c-0.1-0.3-0.4-1-1.7-1c-1.8,0-2.2,1.2-2.2,2
			c0,1.3,0.9,2,2.1,2c1.1,0,1.7-0.4,1.9-1.2h-2v-0.9C116.8,70.6,119.8,70.6,119.8,70.6z"/>
		<polygon id="polygon13180" class="st1" points="128.9,67.9 130.4,67.9 127.7,70.1 130.7,73.5 129.3,73.5 126.9,70.8 125.7,71.8 
			125.7,73.5 124.6,73.5 124.6,67.9 125.7,67.9 125.7,70.5 		"/>
		<path id="path13182" inkscape:connector-curvature="0" class="st1" d="M134.6,67.7c2.5,0,3.4,1.5,3.4,3c0,1.2-0.7,2.9-3.4,2.9
			c-2.7,0-3.4-1.7-3.4-2.9C131.2,69.2,132.1,67.7,134.6,67.7 M136.9,70.7c0-1.4-1-2-2.2-2c-1.3,0-2.3,0.6-2.3,2c0,1.6,1.2,2,2.3,2
			C135.7,72.7,136.9,72.3,136.9,70.7"/>
		<polygon id="polygon13184" class="st1" points="145.5,73.5 144.5,73.5 140.6,69.3 140.6,73.5 139.6,73.5 139.6,67.9 140.7,67.9 
			144.5,71.9 144.5,67.9 145.5,67.9 		"/>
		<path id="path13186" inkscape:connector-curvature="0" class="st1" d="M153.4,70.6v3h-0.7l-0.2-0.6c-0.4,0.3-1,0.7-2.1,0.7
			c-1.4,0-3.2-0.7-3.2-2.9c0-1.5,0.9-3,3.1-3c1.3,0,2.7,0.5,3,1.9h-1.1c-0.1-0.3-0.4-1-1.7-1c-1.8,0-2.2,1.2-2.2,2
			c0,1.3,0.9,2,2.1,2c1.1,0,1.7-0.4,2-1.2h-2v-0.9C150.4,70.6,153.4,70.6,153.4,70.6z"/>
		<rect id="rect13188" x="90.7" y="78.5" class="st1" width="1.1" height="5.6"/>
		<polygon id="polygon13190" class="st1" points="99.9,84.1 98.9,84.1 95,79.9 95,84.1 93.9,84.1 93.9,78.5 95.1,78.5 98.8,82.6 
			98.8,78.5 99.9,78.5 		"/>
		<polygon id="polygon13192" class="st1" points="103.5,84.1 103.5,79.4 101,79.4 101,78.5 107.1,78.5 107.1,79.4 104.6,79.4 
			104.6,84.1 		"/>
		<polygon id="polygon13194" class="st1" points="109.5,79.4 109.5,80.7 112.9,80.7 112.9,81.7 109.5,81.7 109.5,83.2 113.6,83.2 
			113.6,84.1 108.4,84.1 108.4,78.5 113.5,78.5 113.5,79.4 		"/>
		<path id="path13196" inkscape:connector-curvature="0" class="st1" d="M115.3,78.5h3.4c1.3,0,2.3,0.3,2.3,1.7c0,1-0.7,1.6-1.6,1.7
			l1.7,2.3h-1.3l-1.6-2.2h-1.7v2.2h-1.1C115.3,84.1,115.3,78.5,115.3,78.5z M118.5,81c0.9,0,1.4-0.1,1.4-0.8c0-0.7-0.5-0.8-1.4-0.8
			h-2.1V81C116.4,81,118.5,81,118.5,81z"/>
		<polygon id="polygon13198" class="st1" points="128.9,84.1 127.9,84.1 123.9,79.9 123.9,84.1 122.9,84.1 122.9,78.5 124,78.5 
			127.8,82.6 127.8,78.5 128.9,78.5 		"/>
		<path id="path13200" inkscape:connector-curvature="0" class="st1" d="M132.8,78.5h1.3l2.7,5.6h-1.2l-0.6-1.3h-3.2l-0.6,1.3h-1.2
			L132.8,78.5L132.8,78.5z M134.6,81.9l-1.2-2.5l-1.2,2.5H134.6L134.6,81.9z"/>
		<polygon id="polygon13202" class="st1" points="139,84.1 139,79.4 136.5,79.4 136.5,78.5 142.6,78.5 142.6,79.4 140.1,79.4 
			140.1,84.1 		"/>
		<rect id="rect13204" x="143.6" y="78.5" class="st1" width="1.1" height="5.6"/>
		<path id="path13206" inkscape:connector-curvature="0" class="st1" d="M150,78.4c2.5,0,3.4,1.5,3.4,3c0,1.2-0.7,2.9-3.4,2.9
			s-3.4-1.7-3.4-2.9C146.6,79.8,147.5,78.4,150,78.4 M152.2,81.3c0-1.4-1-2-2.3-2c-1.3,0-2.3,0.6-2.3,2c0,1.6,1.2,2,2.3,2
			C151,83.3,152.2,82.9,152.2,81.3"/>
		<polygon id="polygon13208" class="st1" points="160.9,84.1 159.9,84.1 156,79.9 156,84.1 155,84.1 155,78.5 156.1,78.5 
			159.9,82.6 159.9,78.5 160.9,78.5 		"/>
		<path id="path13210" inkscape:connector-curvature="0" class="st1" d="M165.1,78.5h1.3l2.7,5.6h-1.2l-0.6-1.3h-3.2l-0.6,1.3h-1.2
			L165.1,78.5L165.1,78.5z M166.9,81.9l-1.2-2.5l-1.2,2.5H166.9L166.9,81.9z"/>
		<polygon id="polygon13212" class="st1" points="175.5,83.2 175.5,84.1 170.3,84.1 170.3,78.5 171.4,78.5 171.4,83.2 		"/>
		<path id="path13214" inkscape:connector-curvature="0" class="st1" d="M92.8,89.1h1.3l2.7,5.6h-1.2l-0.6-1.3h-3.2l-0.6,1.3h-1.2
			C90.1,94.7,92.8,89.1,92.8,89.1z M94.7,92.5L93.5,90l-1.2,2.5H94.7z"/>
		<rect id="rect13216" x="98.1" y="89.1" class="st1" width="1.1" height="5.6"/>
		<path id="path13218" inkscape:connector-curvature="0" class="st1" d="M101.5,89.1h3.4c1.3,0,2.3,0.3,2.3,1.7c0,1-0.8,1.6-1.6,1.7
			l1.7,2.3H106l-1.6-2.2h-1.7v2.2h-1.1L101.5,89.1L101.5,89.1z M104.7,91.6c0.9,0,1.4-0.1,1.4-0.8c0-0.7-0.5-0.8-1.4-0.8h-2.1v1.6
			C102.6,91.6,104.7,91.6,104.7,91.6z"/>
		<path id="path13220" inkscape:connector-curvature="0" class="st1" d="M108.8,89.1h3.1c0.9,0,2.5,0,2.5,1.7c0,1.7-1.6,1.7-2.5,1.7
			h-2v2.2h-1.1C108.8,94.7,108.8,89.1,108.8,89.1z M112.2,91.6c0.6,0,1.2-0.1,1.2-0.8c0-0.7-0.6-0.8-1.2-0.8h-2.3v1.6L112.2,91.6
			L112.2,91.6z"/>
		<path id="path13222" inkscape:connector-curvature="0" class="st1" d="M118.5,89c2.5,0,3.3,1.5,3.3,3c0,1.2-0.7,2.9-3.3,2.9
			c-2.7,0-3.4-1.7-3.4-2.9C115.2,90.4,116.1,89,118.5,89 M120.8,91.9c0-1.4-1-2-2.2-2c-1.3,0-2.3,0.6-2.3,2c0,1.6,1.2,2,2.3,2
			C119.6,93.9,120.8,93.5,120.8,91.9"/>
		<path id="path13224" inkscape:connector-curvature="0" class="st1" d="M123.3,89.1h3.4c1.3,0,2.3,0.3,2.3,1.7c0,1-0.8,1.6-1.6,1.7
			l1.7,2.3h-1.4l-1.6-2.2h-1.7v2.2h-1.1L123.3,89.1L123.3,89.1z M126.6,91.6c0.9,0,1.3-0.1,1.3-0.8c0-0.7-0.4-0.8-1.3-0.8h-2.1v1.6
			C124.4,91.6,126.6,91.6,126.6,91.6z"/>
		<polygon id="polygon13226" class="st1" points="132.5,94.7 132.5,90 130,90 130,89.1 136.1,89.1 136.1,90 133.6,90 133.6,94.7 		
			"/>
	</g>
</g>
</svg>
