<?xml version="1.0" encoding="utf-8"?>
<!-- Generator: Adobe Illustrator 22.0.0, SVG Export Plug-In . SVG Version: 6.00 Build 0)  -->
<svg version="1.1" id="Layer_1" xmlns="http://www.w3.org/2000/svg" xmlns:xlink="http://www.w3.org/1999/xlink" x="0px" y="0px"
	 viewBox="0 0 64 64" style="enable-background:new 0 0 64 64;" xml:space="preserve">
<style type="text/css">
	.st0{fill:#FFFFFF;}
</style>
<g>
	<g id="Icon-Check" transform="translate(328.000000, 278.000000)">
		<path id="Fill-43" class="st0" d="M-296-222.6c-12.9,0-23.4-10.5-23.4-23.4s10.5-23.4,23.4-23.4s23.4,10.5,23.4,23.4
			S-283.1-222.6-296-222.6L-296-222.6z M-296-266.9c-11.5,0-20.9,9.4-20.9,20.9s9.4,20.9,20.9,20.9s20.9-9.4,20.9-20.9
			S-284.5-266.9-296-266.9L-296-266.9z"/>
		<polyline id="Fill-44" class="st0" points="-298.8,-235.9 -310.7,-247.9 -308.9,-249.7 -298.8,-239.5 -283.1,-255.2 
			-281.3,-253.4 -298.8,-235.9 		"/>
	</g>
</g>
</svg>
